<svg width="174" height="58" viewBox="0 0 174 58" fill="none" xmlns="http://www.w3.org/2000/svg">
<path d="M51.9397 43.7191C51.9397 44.5572 52.3589 45.2391 53.4604 45.7622C54.9812 46.4953 57.4421 47.1243 59.6451 47.1243C62.4219 47.1243 64.729 46.2862 66.3531 44.82C66.8774 44.3481 67.3171 43.7149 67.4068 42.8819C67.6117 40.972 65.5966 37.7819 61.4271 35.4443C63.4542 36.5802 63.9426 37.7486 63.9426 39.2685C63.9426 41.5207 62.1606 43.0398 59.5921 43.0398C57.1304 43.0398 55.0307 41.7819 53.8797 41.7819C52.7287 41.7819 51.9397 42.5661 51.9397 43.7191Z" fill="url(#paint0_linear_31441_40050)"/>
<path d="M79.8282 19.9025H83.4341V13.4728H85.9915V10.875H77.27V13.4728H79.8282V19.9025Z" fill="white"/>
<path d="M88.6505 19.9025L90.4872 14.5038L92.3247 19.9025H95.8495L92.3948 10.875H88.5797L85.1249 19.9025H88.6505Z" fill="white"/>
<path d="M97.5427 19.9025H101.149V13.4728H103.707V10.875H94.9854V13.4728H97.5427V19.9025Z" fill="white"/>
<path d="M106.365 19.9025L108.202 14.5038L110.039 19.9025H113.565L110.11 10.875H106.295L102.84 19.9025H106.365Z" fill="white"/>
<path d="M140.968 26.3578C141.445 27.4271 141.985 28.4675 142.587 29.4711L144.941 33.4421H146.65V24.4154H145.124V27.5645C145.124 28.9445 145.156 30.106 145.272 31.3059L145.241 31.3153C144.798 30.2733 144.284 29.2628 143.702 28.2899L141.368 24.4146H139.484V33.4421H141.009V30.2093C141.009 28.7269 140.988 27.5355 140.923 26.3638L140.968 26.3578Z" fill="white"/>
<path d="M132.778 30.8913H135.645L136.463 33.4422H138.233L135.298 24.4155H133.199L130.3 33.4422H132.006L132.778 30.8913ZM133.745 27.4153C133.903 26.8776 134.043 26.2529 134.175 25.7213H134.203C134.339 26.2436 134.485 26.8589 134.661 27.4153L135.374 29.6402H133.047L133.745 27.4153Z" fill="white"/>
<path d="M105.888 32.219C105.124 32.2131 104.374 32.0151 103.707 31.643L103.34 33.0085C103.835 33.3106 104.826 33.5845 105.782 33.5845C108.114 33.5845 109.208 32.3232 109.208 30.8706C109.208 29.5734 108.455 28.7849 106.885 28.1875C105.678 27.7275 105.156 27.4015 105.156 26.7093C105.156 26.1777 105.601 25.6221 106.648 25.6221C107.275 25.6178 107.894 25.7646 108.453 26.0505L108.848 24.7209C108.377 24.4819 107.659 24.2737 106.682 24.2737C104.723 24.2737 103.486 25.3883 103.486 26.8655C103.486 28.1593 104.439 28.959 105.934 29.4889C107.075 29.9029 107.535 30.3048 107.535 30.9867C107.53 31.7258 106.942 32.219 105.888 32.219Z" fill="white"/>
<path d="M82.1747 25.635C82.7792 25.6282 83.3786 25.7477 83.9337 25.9866L84.2931 24.6749C83.9584 24.494 83.1925 24.2747 82.1047 24.2747C79.3441 24.2747 77.27 26.0626 77.27 29.0359C77.27 31.7831 79.0162 33.5846 81.8844 33.5846C82.9765 33.5846 83.8363 33.3704 84.2274 33.1742L83.955 31.8752C83.5187 32.0707 82.8253 32.203 82.1542 32.203C80.1689 32.203 79.0094 30.9416 79.0094 28.9531C79.0077 26.7837 80.332 25.635 82.1747 25.635Z" fill="white"/>
<path d="M128.293 33.4422V25.8015H130.898V24.4155H124.063V25.8015H126.644V33.4422H128.293Z" fill="white"/>
<path d="M161.27 24.4155L160.182 26.7274C159.874 27.3863 159.624 27.9436 159.401 28.5154H159.373C159.126 27.9035 158.894 27.3906 158.585 26.7274L157.513 24.4155H155.629L158.485 29.6863V33.443H160.135V29.6402L163.136 24.4164L161.27 24.4155Z" fill="white"/>
<path d="M89.0756 24.2678C86.5242 24.2678 84.7738 26.2256 84.7738 28.9983C84.7738 31.6405 86.3885 33.5915 88.9416 33.5915H88.9544C91.428 33.5915 93.263 31.8624 93.263 28.8371C93.2639 26.2572 91.709 24.2678 89.0756 24.2678ZM89.0107 32.2687H88.9979C87.4208 32.2687 86.4986 30.7513 86.5029 28.9565C86.508 27.1618 87.3696 25.5864 89.015 25.5864C90.6604 25.5864 91.5075 27.1959 91.5075 28.8985C91.5075 30.7897 90.6041 32.2712 89.0099 32.2712L89.0107 32.2687Z" fill="white"/>
<path d="M152.981 25.635C153.586 25.6282 154.186 25.7485 154.741 25.9866L155.101 24.6749C154.765 24.494 154 24.2747 152.912 24.2747C150.151 24.2747 148.077 26.0626 148.077 29.0359C148.077 31.7831 149.823 33.5846 152.691 33.5846C153.783 33.5846 154.643 33.3713 155.034 33.1742L154.762 31.8752C154.325 32.0724 153.632 32.2038 152.961 32.2038C150.976 32.2038 149.816 30.9416 149.816 28.9531C149.814 26.7837 151.139 25.635 152.981 25.635Z" fill="white"/>
<path d="M121.266 24.4155H119.615V33.443H124.979V32.0588H121.266V24.4155Z" fill="white"/>
<path d="M117.737 29.5719V24.4155H116.086V29.6786C116.086 31.4477 115.372 32.2636 114.183 32.2636C113.064 32.2636 112.332 31.4426 112.332 29.6786V24.4155H110.682V29.5796C110.682 32.4189 112.04 33.5907 114.123 33.5907C116.305 33.5915 117.737 32.3532 117.737 29.5719Z" fill="white"/>
<path d="M101.845 24.4154H100.319V27.5645C100.319 28.9445 100.349 30.106 100.466 31.3059L100.435 31.3153C99.9916 30.2733 99.4776 29.262 98.8961 28.2899L96.5625 24.4146H94.6788V33.4421H96.2064V30.2093C96.2064 28.7269 96.1842 27.5355 96.1185 26.3638L96.1612 26.3544C96.6376 27.4246 97.1781 28.464 97.781 29.4677L100.135 33.4386H101.845V24.4154Z" fill="white"/>
<path d="M108.903 37.9551H107.253V46.9817H108.903V37.9551Z" fill="white"/>
<path d="M95.9102 42.7505V42.7129C96.7581 42.4134 97.5385 41.6273 97.5385 40.4735C97.5385 39.7054 97.2559 39.0859 96.7675 38.6762C96.1629 38.1718 95.1203 37.9542 94.0026 37.9542C93.1718 37.9414 92.341 38.0063 91.5221 38.1471V46.9817H93.1462V43.3001H93.9702C94.9009 43.3223 95.3261 43.7012 95.5831 44.8678C95.8325 45.9815 96.0485 46.7197 96.1851 46.9817H97.8673C97.6871 46.6318 97.4437 45.6043 97.1602 44.4846C96.9357 43.6141 96.5583 42.9962 95.9102 42.7505ZM94.1128 42.0993H93.1445V39.2702C93.4792 39.2053 93.8207 39.178 94.1614 39.1883C95.2202 39.1883 95.9067 39.6483 95.9067 40.6246C95.9067 41.5147 95.2228 42.0993 94.1128 42.0993Z" fill="white"/>
<path d="M103.208 42.0847C102.859 43.1805 102.529 44.2831 102.29 45.349H102.262C102.027 44.2575 101.72 43.201 101.377 42.0608L100.144 37.9558H98.3436L101.263 46.9825H103.155L106.277 37.9558H104.521L103.208 42.0847Z" fill="white"/>
<path d="M120.321 42.9775H123.724V41.6316H120.321V39.3129H123.927V37.9551H118.67V46.9826H124.126V45.6256H120.321V42.9775Z" fill="white"/>
<path d="M115.229 39.1746C115.834 39.1677 116.434 39.2881 116.989 39.5262L117.348 38.2145C117.013 38.0335 116.247 37.8142 115.16 37.8142C112.398 37.8142 110.324 39.6072 110.324 42.5755C110.324 45.3226 112.071 47.1242 114.939 47.1242C116.031 47.1242 116.891 46.9109 117.282 46.7137L117.009 45.4148C116.573 45.6119 115.88 45.7434 115.209 45.7434C113.223 45.7434 112.064 44.4811 112.064 42.4927C112.059 40.3233 113.384 39.1746 115.229 39.1746Z" fill="white"/>
<path d="M80.8136 41.728C79.6071 41.268 79.0854 40.942 79.0854 40.2499C79.0854 39.7182 79.5302 39.1626 80.5771 39.1626C81.2038 39.1583 81.8229 39.3051 82.3813 39.591L82.7767 38.2614C82.3062 38.0224 81.5881 37.8142 80.6104 37.8142C78.6524 37.8142 77.4152 38.9288 77.4152 40.4061C77.4152 41.6998 78.3681 42.5004 79.8632 43.0295C81.0057 43.4442 81.4643 43.8462 81.4643 44.5272C81.4643 45.2663 80.8751 45.7596 79.8223 45.7596C79.058 45.7536 78.3083 45.5556 77.6415 45.1835L77.2751 46.549C77.7687 46.8511 78.76 47.1251 79.7164 47.1251C82.0483 47.1251 83.1421 45.8637 83.1421 44.4112C83.137 43.114 82.3822 42.3254 80.8136 41.728Z" fill="white"/>
<path d="M86.2707 42.9775H89.6733V41.6316H86.2707V39.3129H89.8774V37.9551H84.6193V46.9826H90.0755V45.6256H86.2707V42.9775Z" fill="white"/>
<path d="M128.72 41.728C127.514 41.268 126.991 40.942 126.991 40.2499C126.991 39.7182 127.436 39.1626 128.484 39.1626C129.11 39.1583 129.729 39.3051 130.288 39.591L130.683 38.2614C130.213 38.0224 129.495 37.8142 128.517 37.8142C126.558 37.8142 125.321 38.9288 125.321 40.4061C125.321 41.6998 126.275 42.5004 127.769 43.0295C128.911 43.4442 129.37 43.8462 129.37 44.5272C129.37 45.2663 128.781 45.7596 127.73 45.7596C126.966 45.7536 126.215 45.5556 125.547 45.1835L125.181 46.549C125.675 46.8511 126.667 47.1251 127.622 47.1251C129.954 47.1251 131.048 45.8637 131.048 44.4112C131.043 43.114 130.288 42.3254 128.72 41.728Z" fill="white"/>
<path d="M23.2719 46.4942C25.3715 45.7091 26.993 44.242 28.0416 42.0948L25.6832 37.8516C24.6346 40.9939 22.8014 42.6709 20.285 42.6709C17.6653 42.6709 15.9354 41.1509 15.9354 37.6946L15.8799 39.6831C15.4188 43.9024 17.9386 47.66 23.2719 46.4942Z" fill="url(#paint1_linear_31441_40050)"/>
<path d="M29.0901 32.8259C29.0901 42.2041 32.8634 47.4424 44.8125 45.6588C48.6378 43.6686 51.3634 39.6345 53.2496 33.454L54.3502 29.8397C53.3025 28.4777 52.8833 26.9594 52.8833 25.3354C52.8833 23.6063 53.5117 22.0352 54.5603 20.8831C52.9875 22.5592 51.6785 25.0213 50.6299 28.4811L49.4242 32.4606C47.2733 39.4757 43.8706 42.828 38.5758 42.828C32.7583 42.828 29.0901 38.7947 29.0901 32.8259Z" fill="url(#paint2_linear_31441_40050)"/>
<path d="M44.8116 45.6571C32.8659 47.4382 29.0901 41.0477 29.0901 32.8267C29.0901 26.8553 32.7584 22.7691 38.0515 22.7691C39.79 22.7563 41.5089 23.1318 43.0834 23.8692C43.7648 24.1832 44.3412 24.2882 44.8654 24.2882C46.1232 24.2882 46.9617 23.4501 46.9617 22.1896C46.9617 21.4045 46.4904 20.6185 45.3897 20.0945C43.3985 19.0985 40.8283 18.5225 38.0524 18.5225C29.7724 18.5225 24.0591 24.3897 24.0591 32.9274C24.0591 41.3089 29.5614 47.1232 38.4195 47.1232C40.83 47.1232 42.9254 46.6522 44.8116 45.6571Z" fill="url(#paint3_linear_31441_40050)"/>
<path d="M24.0582 32.9281C24.0582 24.3896 29.7715 18.5232 38.0515 18.5232C40.8292 18.5232 43.3976 19.1018 45.3889 20.0952C46.4895 20.6192 46.9608 21.4052 46.9608 22.1904C46.9608 23.4483 46.1223 24.2889 44.8646 24.2889C44.3403 24.2889 43.7639 24.184 43.0825 23.8699C41.508 23.1342 39.7891 22.7579 38.0507 22.7698C30.7671 22.7681 24.0582 27.3758 24.0582 32.9281Z" fill="url(#paint4_linear_31441_40050)"/>
<path d="M55.3467 20.2002C54.8745 20.6508 54.609 21.2764 54.6124 21.9292C54.6124 23.6574 56.2373 26.2245 60.0114 28.8428L64.309 31.8281C67.453 34.0282 68.7107 36.1234 68.7107 39.2665C68.7107 41.5187 67.8201 43.4568 66.3523 44.8189C66.8766 44.3469 67.1908 43.7188 67.1908 42.8808C67.1908 41.0476 65.3558 38.1665 61.4255 35.4432L57.4951 32.7199C54.1931 30.4157 52.8833 28.2676 52.8833 25.3344C52.8833 23.6054 53.5118 22.0342 54.5603 20.8821C54.8088 20.6389 55.0718 20.4118 55.3467 20.2002Z" fill="url(#paint5_linear_31441_40050)"/>
<path d="M60.0105 28.8464C58.3327 27.6414 57.6 26.5422 57.6 25.2322C57.6 23.5561 58.9628 22.5089 60.9011 22.5089C63.3628 22.5089 64.5207 23.661 65.9851 23.661C67.1387 23.661 67.9242 22.8759 67.9242 21.7229C67.9242 20.8849 67.505 20.203 66.4035 19.6798C64.6735 18.8418 62.7839 18.5269 60.7432 18.5269C58.5948 18.5269 56.7077 19.1558 55.345 20.2038C54.8728 20.6544 54.6072 21.28 54.6106 21.9329C54.6123 23.6568 56.2373 26.2239 60.0105 28.8464Z" fill="url(#paint6_linear_31441_40050)"/>
<path d="M10.9034 23.8665C10.9034 20.7242 12.9476 18.8382 15.9353 18.8382V13.4949C15.9353 11.9229 14.8868 10.8757 13.4198 10.8757C11.9529 10.8757 10.9043 11.9237 10.9043 13.4949V23.8665H10.9034Z" fill="url(#paint7_linear_31441_40050)"/>
<path d="M19.8136 47.0712C20.9911 47.0755 22.1601 46.8792 23.2718 46.4926C17.9786 47.3835 15.9883 43.7428 15.9353 39.684V22.9236H22.067C23.4827 22.9236 24.4254 22.0855 24.4254 20.8805C24.4254 19.6755 23.4844 18.8374 22.067 18.8374H15.9353C12.9476 18.8374 10.9034 20.7235 10.9034 23.8658V38.2707C10.9034 44.033 14.2054 47.0712 19.8136 47.0712Z" fill="url(#paint8_linear_31441_40050)"/>
<defs>
<linearGradient id="paint0_linear_31441_40050" x1="65.9157" y1="40.0745" x2="51.7144" y2="43.8358" gradientUnits="userSpaceOnUse">
<stop stop-color="#EE3984"/>
<stop offset="1" stop-color="#7800DA"/>
</linearGradient>
<linearGradient id="paint1_linear_31441_40050" x1="15.0716" y1="43.5321" x2="29.6163" y2="38.9147" gradientUnits="userSpaceOnUse">
<stop stop-color="#EE3984"/>
<stop offset="1" stop-color="#7800DA"/>
</linearGradient>
<linearGradient id="paint2_linear_31441_40050" x1="37.0345" y1="40.9041" x2="46.8188" y2="24.9103" gradientUnits="userSpaceOnUse">
<stop stop-color="#EE3984"/>
<stop offset="1" stop-color="#7800DA"/>
</linearGradient>
<linearGradient id="paint3_linear_31441_40050" x1="34.6682" y1="25.6733" x2="39.854" y2="43.97" gradientUnits="userSpaceOnUse">
<stop stop-color="#FF0000"/>
<stop offset="1" stop-color="#EE3984"/>
</linearGradient>
<linearGradient id="paint4_linear_31441_40050" x1="24.0583" y1="25.7256" x2="46.9606" y2="25.7256" gradientUnits="userSpaceOnUse">
<stop stop-color="#FFC708"/>
<stop offset="1" stop-color="#FA3B00"/>
</linearGradient>
<linearGradient id="paint5_linear_31441_40050" x1="52.8834" y1="32.5093" x2="68.7103" y2="32.5093" gradientUnits="userSpaceOnUse">
<stop stop-color="#FF0000"/>
<stop offset="1" stop-color="#EE3984"/>
</linearGradient>
<linearGradient id="paint6_linear_31441_40050" x1="54.6115" y1="23.6868" x2="67.924" y2="23.6868" gradientUnits="userSpaceOnUse">
<stop stop-color="#FFC708"/>
<stop offset="1" stop-color="#F05731"/>
</linearGradient>
<linearGradient id="paint7_linear_31441_40050" x1="13.4195" y1="12.2585" x2="13.4195" y2="22.6298" gradientUnits="userSpaceOnUse">
<stop stop-color="#FFC708"/>
<stop offset="1" stop-color="#F05731"/>
</linearGradient>
<linearGradient id="paint8_linear_31441_40050" x1="19.1235" y1="20.2282" x2="16.4121" y2="39.8517" gradientUnits="userSpaceOnUse">
<stop stop-color="#F80000"/>
<stop offset="1" stop-color="#EE3984"/>
</linearGradient>
</defs>
</svg>
